<svg xmlns="http://www.w3.org/2000/svg" xmlns:xlink="http://www.w3.org/1999/xlink" width="148.929" height="51.184" viewBox="0 0 148.929 51.184">
  <defs>
    <linearGradient id="linear-gradient" x1="-0.09" y1="0.5" x2="1.106" y2="0.5" gradientUnits="objectBoundingBox">
      <stop offset="0" stop-color="#e72581"/>
      <stop offset="1" stop-color="#5c3a8f"/>
    </linearGradient>
  </defs>
  <g id="Coorty-SANS-BL-QUADRI" transform="translate(-11.8 -13.5)">
    <g id="Groupe_849" data-name="Groupe 849" transform="translate(11.8 21.461)">
      <g id="Groupe_848" data-name="Groupe 848">
        <path id="Tracé_3241" data-name="Tracé 3241" d="M30.731,77.159h-.082c-1.778-2.243-3.967-3.775-6.976-3.775A8.026,8.026,0,0,0,15.739,81.7c0,4.459,3.064,8.316,7.742,8.316a8.747,8.747,0,0,0,7.332-3.885h.082v5.116a12.336,12.336,0,0,1-7.14,2.3A11.645,11.645,0,0,1,11.8,81.673,11.874,11.874,0,0,1,23.809,69.8a12.287,12.287,0,0,1,6.949,2.243v5.116Z" transform="translate(-11.8 -62.359)"/>
        <path id="Tracé_3242" data-name="Tracé 3242" d="M375.83,72.964h.082c1.34-1.778,2.489-3.064,4.979-3.064a6.96,6.96,0,0,1,3.447,1.04l-1.806,3.5a3.764,3.764,0,0,0-2.3-1.012c-4.213,0-4.4,5.417-4.4,8.316V92.989H372V70.529h3.83Z" transform="translate(-273.462 -62.432)"/>
        <path id="Tracé_3243" data-name="Tracé 3243" d="M433.083,73.212h-3.83V54.254H426.9V50.7h2.353V42.6h3.83v8.1H437.1v3.529h-4.021Z" transform="translate(-313.343 -42.6)"/>
        <path id="Tracé_3244" data-name="Tracé 3244" d="M468.4,72.2h4.459l7.933,16.14,7.277-16.14h4.35l-16.605,35.126h-4.35l7.277-14.745Z" transform="translate(-343.49 -64.102)"/>
      </g>
    </g>
    <g id="Groupe_850" data-name="Groupe 850" transform="translate(37.652 13.5)">
      <path id="Tracé_3245" data-name="Tracé 3245" d="M153.8,18.287a66.1,66.1,0,0,1,14.773,1.669A47.4,47.4,0,0,0,153.8,35.6a47.126,47.126,0,0,0-14.773-15.648A66.1,66.1,0,0,1,153.8,18.287m0-4.787a67.009,67.009,0,0,0-26.7,5.362c15.183,6.566,25.633,18.6,26.618,32.5h.164c.985-13.9,11.435-25.907,26.618-32.5A66.911,66.911,0,0,0,153.8,13.5Z" transform="translate(-121.41 -13.5)" fill="url(#linear-gradient)"/>
      <path id="Tracé_3246" data-name="Tracé 3246" d="M275.025,69.6a11.025,11.025,0,1,0,11.025,11.025A11.045,11.045,0,0,0,275.025,69.6Zm0,16.961a5.936,5.936,0,1,1,5.936-5.936,5.931,5.931,0,0,1-5.936,5.936Zm0,0" transform="translate(-220.859 -54.253)"/>
      <path id="Tracé_3247" data-name="Tracé 3247" d="M117.325,69.6a11.025,11.025,0,1,0,11.025,11.025A11.045,11.045,0,0,0,117.325,69.6Zm0,16.961a5.936,5.936,0,1,1,5.936-5.936,5.931,5.931,0,0,1-5.936,5.936Zm0,0" transform="translate(-106.3 -54.253)"/>
    </g>
  </g>
</svg>
